# 3ds Max Wavefront OBJ Exporter v0.97b - (c)2007 guruware
# File Created: 22.09.2020 18:49:47

mtllib COIN_V001.mtl

#
# object COIN
#

v  47.6962 0.0000 -0.0000
v  44.8198 0.0000 -16.3131
v  44.8198 10.5543 -16.3131
v  47.6962 10.5543 -0.0000
v  36.5374 0.0000 -30.6585
v  36.5374 10.5543 -30.6585
v  23.8481 0.0000 -41.3061
v  23.8481 10.5543 -41.3061
v  8.2824 0.0000 -46.9716
v  8.2824 10.5543 -46.9716
v  -8.2824 0.0000 -46.9716
v  -8.2824 10.5543 -46.9716
v  -23.8481 0.0000 -41.3061
v  -23.8481 10.5543 -41.3061
v  -36.5374 0.0000 -30.6585
v  -36.5374 10.5543 -30.6585
v  -44.8198 0.0000 -16.3131
v  -44.8198 10.5543 -16.3131
v  -47.6962 0.0000 -0.0000
v  -47.6962 10.5543 -0.0000
v  -44.8198 0.0000 16.3131
v  -44.8198 10.5543 16.3131
v  -36.5374 0.0000 30.6585
v  -36.5374 10.5543 30.6585
v  -23.8481 0.0000 41.3061
v  -23.8481 10.5543 41.3061
v  -8.2824 0.0000 46.9716
v  -8.2824 10.5543 46.9716
v  8.2823 0.0000 46.9716
v  8.2823 10.5543 46.9716
v  23.8481 0.0000 41.3061
v  23.8481 10.5543 41.3061
v  36.5374 0.0000 30.6586
v  36.5374 10.5543 30.6586
v  44.8198 0.0000 16.3131
v  44.8198 10.5543 16.3131
# 36 vertices

vn 1.0000 0.0000 0.0000
vn 0.9397 0.0000 -0.3420
vn 0.7660 0.0000 -0.6428
vn 0.5000 0.0000 -0.8660
vn 0.1736 0.0000 -0.9848
vn -0.1736 0.0000 -0.9848
vn -0.5000 0.0000 -0.8660
vn -0.7660 0.0000 -0.6428
vn -0.9397 0.0000 -0.3420
vn -1.0000 0.0000 -0.0000
vn -0.9397 0.0000 0.3420
vn -0.7660 0.0000 0.6428
vn -0.5000 0.0000 0.8660
vn -0.1736 0.0000 0.9848
vn 0.1736 0.0000 0.9848
vn 0.5000 0.0000 0.8660
vn 0.7660 0.0000 0.6428
vn 0.9397 0.0000 0.3420
vn 0.0000 -1.0000 -0.0000
vn 0.0000 1.0000 -0.0000
# 20 vertex normals

vt 0.7157 0.0200 -1.2086
vt 0.7700 0.0200 -1.2086
vt 0.7700 0.0546 -1.2086
vt 0.7157 0.0546 -1.2086
vt 0.8242 0.0200 -1.2086
vt 0.8243 0.0546 -1.2086
vt 0.8785 0.0200 -1.2086
vt 0.8786 0.0546 -1.2086
vt 0.9328 0.0200 -1.2086
vt 0.9328 0.0546 -1.2086
vt 0.9871 0.0200 1.2086
vt 0.9871 0.0546 -1.2086
vt 0.0098 0.0200 1.2086
vt 0.0641 0.0200 -1.2086
vt 0.0641 0.0546 -1.2086
vt 0.0098 0.0546 -1.2086
vt 0.1184 0.0200 -1.2086
vt 0.1184 0.0546 -1.2086
vt 0.1727 0.0200 -1.2086
vt 0.1727 0.0546 -1.2086
vt 0.2270 0.0200 -1.2086
vt 0.2270 0.0546 -1.2086
vt 0.2813 0.0200 -1.2086
vt 0.2812 0.0546 -1.2086
vt 0.3356 0.0200 -1.2086
vt 0.3355 0.0546 -1.2086
vt 0.3899 0.0200 -1.2086
vt 0.3898 0.0546 -1.2086
vt 0.4442 0.0200 -1.2086
vt 0.4442 0.0546 -1.2086
vt 0.4985 0.0200 -1.2086
vt 0.4985 0.0546 -1.2086
vt 0.5528 0.0200 -1.2086
vt 0.5528 0.0546 -1.2086
vt 0.6071 0.0200 -1.2086
vt 0.6071 0.0546 -1.2086
vt 0.6614 0.0200 -1.2086
vt 0.6614 0.0546 -1.2086
vt 0.5406 0.8105 0.0967
vt 0.4934 0.8923 0.0967
vt 0.4210 0.9530 0.0967
vt 0.3323 0.9853 0.0967
vt 0.2378 0.9853 0.0967
vt 0.1490 0.9530 0.0967
vt 0.0766 0.8923 0.0967
vt 0.0294 0.8105 0.0967
vt 0.0130 0.7174 -0.0967
vt 0.0294 0.6244 0.0967
vt 0.0766 0.5426 0.0967
vt 0.1490 0.4818 0.0967
vt 0.2378 0.4495 0.0967
vt 0.3323 0.4495 0.0967
vt 0.4210 0.4818 0.0967
vt 0.4934 0.5426 0.0967
vt 0.5406 0.6244 0.0967
vt 0.5571 0.7174 -0.0967
vt 0.9791 0.3431 0.0967
vt 0.9627 0.4362 -0.0967
vt 0.9155 0.5180 -0.0967
vt 0.8431 0.5787 -0.0967
vt 0.7543 0.6110 -0.0967
vt 0.6599 0.6110 -0.0967
vt 0.5711 0.5787 -0.0967
vt 0.4987 0.5180 -0.0967
vt 0.4515 0.4362 -0.0967
vt 0.4351 0.3431 0.0967
vt 0.4515 0.2501 -0.0967
vt 0.4987 0.1683 -0.0967
vt 0.5711 0.1075 -0.0967
vt 0.6599 0.0752 -0.0967
vt 0.7543 0.0752 -0.0967
vt 0.8431 0.1075 -0.0967
vt 0.9155 0.1683 -0.0967
vt 0.9627 0.2501 -0.0967
# 74 texture coords

g COIN
usemtl Material__25
s 8
f 1/1/1 2/2/2 3/3/2 4/4/1 
f 2/2/2 5/5/3 6/6/3 3/3/2 
f 5/5/3 7/7/4 8/8/4 6/6/3 
f 7/7/4 9/9/5 10/10/5 8/8/4 
f 9/9/5 11/11/6 12/12/6 10/10/5 
f 11/13/6 13/14/7 14/15/7 12/16/6 
f 13/14/7 15/17/8 16/18/8 14/15/7 
f 15/17/8 17/19/9 18/20/9 16/18/8 
f 17/19/9 19/21/10 20/22/10 18/20/9 
f 19/21/10 21/23/11 22/24/11 20/22/10 
f 21/23/11 23/25/12 24/26/12 22/24/11 
f 23/25/12 25/27/13 26/28/13 24/26/12 
f 25/27/13 27/29/14 28/30/14 26/28/13 
f 27/29/14 29/31/15 30/32/15 28/30/14 
f 29/31/15 31/33/16 32/34/16 30/32/15 
f 31/33/16 33/35/17 34/36/17 32/34/16 
f 33/35/17 35/37/18 36/38/18 34/36/17 
f 35/37/18 1/1/1 4/4/1 36/38/18 
s 1
f 35/39/19 33/40/19 31/41/19 29/42/19 27/43/19 25/44/19 23/45/19 21/46/19 19/47/19 17/48/19 15/49/19 13/50/19 11/51/19 9/52/19 7/53/19 5/54/19 2/55/19 1/56/19 
f 4/57/20 3/58/20 6/59/20 8/60/20 10/61/20 12/62/20 14/63/20 16/64/20 18/65/20 20/66/20 22/67/20 24/68/20 26/69/20 28/70/20 30/71/20 32/72/20 34/73/20 36/74/20 
# 20 polygons

